<svg width="176" height="176" viewBox="0 0 176 176" style="filter: drop-shadow(rgba(0, 0, 0, 0.25) 0px 4px 40px);" xmlns="http://www.w3.org/2000/svg"><rect x="0" y="0" width="176" height="176" rx="44" fill="#000000" stroke="none" stroke-width="0"/><foreignObject x="24" y="24" width="128" height="128"><svg xmlns="http://www.w3.org/1999/xhtml" width="24" height="24" viewBox="0 0 24 24" fill="none" stroke="currentColor" stroke-width="2" stroke-linecap="round" stroke-linejoin="round" class="lucide lucide-zap" aria-hidden="true" style="width: 128px; height: 128px; color: rgb(255, 255, 255);"><path d="M4 14a1 1 0 0 1-.78-1.63l9.9-10.2a.5.5 0 0 1 .86.46l-1.92 6.02A1 1 0 0 0 13 10h7a1 1 0 0 1 .78 1.63l-9.9 10.2a.5.5 0 0 1-.86-.46l1.92-6.02A1 1 0 0 0 11 14z"/></svg></foreignObject></svg>